<svg xmlns="http://www.w3.org/2000/svg" xmlns:xlink="http://www.w3.org/1999/xlink" viewBox="0 0 586.43 134.71"><defs><clipPath id="clip-path" transform="translate(-39.28 -395.79)"><polygon points="294.7 438.26 351.79 438.26 355.28 485.09 281.3 485.09 294.7 438.26" style="fill:none"/></clipPath></defs><title>Bussonderstreifen</title><g id="Basis"><polygon id="Straße" points="241.29 7.93 441.86 7.93 585.93 134.21 180.63 134.21 241.29 7.93" style="fill:gray;stroke:#000;stroke-linejoin:round"/><polygon id="Fußweg" points="0.5 119.2 180.72 119.2 241.34 0.5 152.15 0.5 0.5 119.2" style="fill:#f2f2f2;stroke:#000;stroke-linejoin:round"/><path d="M574.86,504.31h-5.73L552,487.51h5.3ZM545,475.78h-5l-13.2-12.93h4.67Zm-23.13-22.1h-4.44l-10.47-10.25h4.18ZM503.4,436.07h-4l-8.5-8.33h3.77Zm-15-14.37h-3.62l-7-6.9h3.44Zm-12.51-11.95h-3.31l-5.93-5.81h3.16Z" transform="translate(-39.28 -395.79)" style="fill:#fff"/><polygon points="562.47 134.21 556.09 134.21 545.73 124.07 551.85 124.07 562.47 134.21" style="fill:#fff"/><polygon points="241.29 0.5 180.63 119.2 180.63 134.21 241.29 7.93 241.29 0.5" style="fill:#ccc;stroke:#000;stroke-linejoin:round"/></g><g id="Bussonderstreifen"><path d="M407.47,504.19H393.71l-4-16.73h12.73Zm-8.55-28.42h-12l-3.08-12.88H395Zm-6.63-22H381.63l-2.45-10.22h10ZM387,436.17h-9.58l-2-8.31h9.08Zm-4.32-14.35H374l-1.65-6.88h8.28Zm-3.59-11.93h-8l-1.39-5.8h7.62Z" transform="translate(-39.28 -395.79)" style="fill:#fff"/><polygon points="375.88 133.96 360.56 133.96 358.14 123.87 372.85 123.87 375.88 133.96" style="fill:#fff"/><g style="clip-path:url(#clip-path)"><g style="clip-path:url(#clip-path)"><path d="M301.84,443.8A40.33,40.33,0,0,1,315.77,439a42.65,42.65,0,0,1,14.78,0,33,33,0,0,1,12.91,4.85,20.88,20.88,0,0,1,8.23,9.12,16.11,16.11,0,0,1,.81,11.89c-1.32,4.47-3.91,8.15-8.35,11.7A37.74,37.74,0,0,1,327.88,484a42.52,42.52,0,0,1-19,0c-6.25-1.42-10.86-3.78-14.68-7.46s-5.5-7.23-5.87-11.7a17.73,17.73,0,0,1,3.32-11.89,28.38,28.38,0,0,1,10.17-9.12" transform="translate(-39.28 -395.79)" style="fill:#fff"/><path d="M302.66,444.43A38.56,38.56,0,0,1,316,439.78a40.63,40.63,0,0,1,14.17,0,31.33,31.33,0,0,1,12.34,4.66,19.65,19.65,0,0,1,7.8,8.74,15.31,15.31,0,0,1,.68,11.34c-1.29,4.24-3.78,7.73-8,11.08a36,36,0,0,1-15.45,7,40.22,40.22,0,0,1-18,0c-5.93-1.32-10.31-3.55-14-7a16.7,16.7,0,0,1-5.66-11.09A16.89,16.89,0,0,1,293,453.18a27,27,0,0,1,9.66-8.75" transform="translate(-39.28 -395.79)" style="fill:#154889"/><path d="M341.89,457.82l-.19,0H337a.7.7,0,0,1-.67-.35L335,454c-.09-.25.13-.51.49-.58l.18,0h4.55a.7.7,0,0,1,.65.34l1.46,3.53c.11.26-.1.53-.46.6m-7.31,0-.19,0h-4.66a.67.67,0,0,1-.65-.35l-1.2-3.54c-.09-.25.14-.51.5-.58l.19,0h4.54a.65.65,0,0,1,.64.34l1.32,3.53c.1.26-.12.53-.49.6Zm-7.3,0-.2,0h-4.66a.63.63,0,0,1-.63-.35L320.73,454c-.07-.25.17-.51.53-.58l.19,0H326a.65.65,0,0,1,.63.34l1.17,3.53c.09.26-.14.53-.51.6m-7.31,0-.19,0h-4.66a.59.59,0,0,1-.62-.35l-.91-3.54c-.07-.25.18-.51.55-.58l.19,0h4.54a.61.61,0,0,1,.61.34l1,3.53c.08.26-.16.53-.54.6m-7.31,0-.19,0h-4.86c-.38,0-.65-.22-.6-.49l.66-3.53c0-.26.38-.47.76-.47h3.32a.59.59,0,0,1,.6.34l.88,3.53c.07.26-.19.53-.57.6m-6.85-.47a.78.78,0,0,1-.79.49h-5.53c-.39,0-.65-.22-.58-.49a.41.41,0,0,1,.07-.17l2.59-3.52a.93.93,0,0,1,.71-.31h3.62c.38,0,.64.21.59.47Zm39.28.23-2-4.57a1.86,1.86,0,0,0-1.73-.9H300.73a.53.53,0,0,0-.52.31l-.14.62c0,.15.09.28.29.31h.06c.22.06.3.24.18.4l-3.47,4.68a1.79,1.79,0,0,0-.32.67l-.84,3.46c-.09.38.26.7.79.7h5.72c.35-1.72,2.52-3.1,4.85-3.1s4,1.38,3.73,3.1h17.63c.1-1.72,2.07-3.1,4.4-3.1s4.2,1.38,4.17,3.1h6.2c1.05,0,1.88-.63,1.86-1.39l-.11-3.76a1.29,1.29,0,0,0-.12-.54" transform="translate(-39.28 -395.79)" style="fill:#fff"/><path d="M336.31,463.27c0,1.36-1.56,2.47-3.43,2.47s-3.32-1.11-3.24-2.47,1.61-2.42,3.43-2.42,3.27,1.07,3.24,2.42" transform="translate(-39.28 -395.79)" style="fill:#fff"/><path d="M310.1,463.27c-.22,1.36-1.92,2.47-3.78,2.47s-3.16-1.11-2.89-2.47,1.95-2.42,3.77-2.42,3.12,1.07,2.9,2.42" transform="translate(-39.28 -395.79)" style="fill:#fff"/></g></g></g><g id="Overlay"><polygon id="Straße-2" data-name="Straße" points="241.29 7.93 441.86 7.93 585.93 134.21 180.63 134.21 241.29 7.93" style="fill:none;stroke:#000;stroke-linejoin:round"/></g></svg>