<svg xmlns="http://www.w3.org/2000/svg" xmlns:xlink="http://www.w3.org/1999/xlink" viewBox="0 0 586.43 134.71"><defs><clipPath id="clip-path" transform="translate(-39.28 -395.79)"><polygon points="273.45 438.34 330.5 438.34 327.69 485.16 253.77 485.16 273.45 438.34" style="fill:none"/></clipPath></defs><title>Radfahrstreifen</title><g id="Basis"><polygon id="Straße" points="241.29 7.93 441.86 7.93 585.93 134.21 180.63 134.21 241.29 7.93" style="fill:gray;stroke:#000;stroke-linejoin:round"/><polygon id="Fußweg" points="0.5 119.2 180.72 119.2 241.34 0.5 152.15 0.5 0.5 119.2" style="fill:#f2f2f2;stroke:#000;stroke-linejoin:round"/><path d="M574.86,504.31h-5.73L552,487.51h5.3ZM545,475.78h-5l-13.2-12.93h4.67Zm-23.13-22.1h-4.44l-10.47-10.25h4.18ZM503.4,436.07h-4l-8.5-8.33h3.77Zm-15-14.37h-3.62l-7-6.9h3.44Zm-12.51-11.95h-3.31l-5.93-5.81h3.16Z" transform="translate(-39.28 -395.79)" style="fill:#fff"/><polygon points="562.47 134.21 556.09 134.21 545.73 124.07 551.85 124.07 562.47 134.21" style="fill:#fff"/><polygon points="241.29 0.5 180.63 119.2 180.63 134.21 241.29 7.93 241.29 0.5" style="fill:#ccc;stroke:#000;stroke-linejoin:round"/></g><g id="Radfahrstreifen"><g style="clip-path:url(#clip-path)"><g style="clip-path:url(#clip-path)"><path d="M279.84,443.86A45.72,45.72,0,0,1,294.42,439a42.64,42.64,0,0,1,14.78,0,28.94,28.94,0,0,1,12.25,4.84,17.21,17.21,0,0,1,7,9.13,16,16,0,0,1-.79,11.89c-1.92,4.47-5,8.15-9.92,11.7A43.45,43.45,0,0,1,300.48,484a42.12,42.12,0,0,1-19,0c-6.07-1.41-10.35-3.77-13.68-7.45a15.27,15.27,0,0,1-4.3-11.7c.21-4.27,1.78-8,4.91-11.89a34.71,34.71,0,0,1,11.39-9.13" transform="translate(-39.28 -395.79)" style="fill:#fff"/><path d="M280.58,444.5a43.74,43.74,0,0,1,13.95-4.66,40.55,40.55,0,0,1,14.16,0,27.56,27.56,0,0,1,11.71,4.66,16.33,16.33,0,0,1,6.63,8.75,15.33,15.33,0,0,1-.85,11.33c-1.85,4.24-4.81,7.73-9.49,11.09a41.64,41.64,0,0,1-16.39,7,40.3,40.3,0,0,1-18,0c-5.75-1.33-9.83-3.55-13-7a14.55,14.55,0,0,1-4.17-11.09c.17-4.05,1.64-7.6,4.59-11.33a32.78,32.78,0,0,1,10.83-8.75" transform="translate(-39.28 -395.79)" style="fill:#154889"/><path d="M312.38,468.35c-4.32.82-8.25-1.07-8.72-4.14h7.89a1.34,1.34,0,0,0,.4-.06c.51-.16.79-.57.62-.93L310,457.63l.27-.05c4.05-.72,7.86,1,8.54,3.85s-2.14,6.11-6.43,6.92Zm-4.16-10.19,2.08,4.65h-6.61c.39-1.93,2.11-3.69,4.53-4.65m-6.42,4.65h-1.91l6.46-8.82,1.33,3c-3.11,1.16-5.37,3.38-5.88,5.85m-3.88-.07-9.19-9.16h16Zm-10.77,2.39c-2.61,2.92-7.66,4.23-11.16,2.89s-3.93-4.71-1.2-7.48a11.45,11.45,0,0,1,9.11-3l-3.84,5.1a.52.52,0,0,0,.34.88,1.42,1.42,0,0,0,1.34-.46l3.8-5.13c3.38,1.2,4.15,4.42,1.61,7.24m33.41-4.45c-1.2-3.49-6.13-5.34-11.11-4.24l-1.88-4.11.89-1.22h2l.2-1.21h-7.5a.56.56,0,0,0-.48.23c-.09.16,0,.32.25.36l3.62.62-.91,1.22h-16l1.17-1.58a2.49,2.49,0,0,1,1.93-.85h2.9l.32-1.19h-2.89a5,5,0,0,0-3.85,1.68l-4.4,5.86a14.26,14.26,0,0,0-11.7,3.89c-3.35,3.5-2.64,7.71,1.78,9.3s10.83-.17,14-3.88,1.86-7.52-2.42-8.93l1.22-1.65,8.67,8.77a1.86,1.86,0,0,0,1.31.46h4a4.19,4.19,0,0,0,.11.78c.9,3.81,6.07,6,11.46,4.67s8.53-5.34,7.29-9" transform="translate(-39.28 -395.79)" style="fill:#fff"/></g></g><polygon points="315.73 134.21 300.72 134.21 300.72 7.93 308.15 7.93 315.73 134.21" style="fill:#fff"/></g><g id="Overlay"><polygon id="Straße-2" data-name="Straße" points="241.29 7.93 441.86 7.93 585.93 134.21 180.63 134.21 241.29 7.93" style="fill:none;stroke:#000;stroke-linejoin:round"/></g></svg>