<svg xmlns="http://www.w3.org/2000/svg" xmlns:xlink="http://www.w3.org/1999/xlink" viewBox="0 0 586.43 134.71"><defs><clipPath id="clip-path" transform="translate(-39.28 -395.79)"><polygon points="212.83 436.21 250.64 436.21 234.72 464.04 190.17 464.04 212.83 436.21" style="fill:none"/></clipPath></defs><title>Radweg</title><g id="Basis"><polygon id="Straße" points="241.29 7.93 441.86 7.93 585.93 134.21 180.63 134.21 241.29 7.93" style="fill:gray;stroke:#000;stroke-linejoin:round"/><polygon id="Fußweg" points="0.5 119.2 180.72 119.2 241.34 0.5 152.15 0.5 0.5 119.2" style="fill:#f2f2f2;stroke:#000;stroke-linejoin:round"/><path d="M574.86,504.31h-5.73L552,487.51h5.3ZM545,475.78h-5l-13.2-12.93h4.67Zm-23.13-22.1h-4.44l-10.47-10.25h4.18ZM503.4,436.07h-4l-8.5-8.33h3.77Zm-15-14.37h-3.62l-7-6.9h3.44Zm-12.51-11.95h-3.31l-5.93-5.81h3.16Z" transform="translate(-39.28 -395.79)" style="fill:#fff"/><polygon points="562.47 134.21 556.09 134.21 545.73 124.07 551.85 124.07 562.47 134.21" style="fill:#fff"/><path d="M399.49,504.48h-5.73l-4-16.72h5.3ZM392,476.08h-5l-3.09-12.87h4.68Zm-5.84-22h-4.45l-2.44-10.22h4.18Zm-4.66-17.57h-4l-2-8.31h3.78Zm-3.8-14.35H374l-1.65-6.89h3.45ZM374.5,410.2h-3.32l-1.39-5.81H373Z" transform="translate(-39.28 -395.79)" style="fill:#fff"/><polygon points="366.97 134.21 360.59 134.21 358.18 124.14 364.3 124.14 366.97 134.21" style="fill:#fff"/><polygon points="241.29 0.5 180.63 119.2 180.63 134.21 241.29 7.93 241.29 0.5" style="fill:#ccc;stroke:#000;stroke-linejoin:round"/></g><g id="Radweg"><polygon points="202.94 0.5 236.71 0.5 171.38 119.2 103.13 119.2 202.94 0.5" style="fill:#009245;stroke:#000;stroke-linecap:round;stroke-linejoin:round"/><g style="clip-path:url(#clip-path)"><g style="clip-path:url(#clip-path)"><path d="M215.64,439.78a43.18,43.18,0,0,1,10.9-3.13,28.57,28.57,0,0,1,9.78,0c3,.57,5.06,1.54,6.58,3.13a6.13,6.13,0,0,1,1.69,5.71c-.41,2.39-1.69,4.62-4.12,7.14a33.17,33.17,0,0,1-9.46,6.7,43.63,43.63,0,0,1-12.41,4.1,28.22,28.22,0,0,1-11.46,0c-3.36-.77-5.46-2.06-6.72-4.1s-1.27-4.11-.18-6.7a19,19,0,0,1,5.78-7.14,38,38,0,0,1,9.62-5.71" transform="translate(-39.28 -395.79)" style="fill:#fff"/><path d="M216,440.18a41,41,0,0,1,10.42-3,27.41,27.41,0,0,1,9.36,0,11,11,0,0,1,6.27,3,5.85,5.85,0,0,1,1.58,5.47c-.4,2.28-1.63,4.41-4,6.81a31.74,31.74,0,0,1-9,6.35,41.11,41.11,0,0,1-11.8,3.89,26.76,26.76,0,0,1-10.87,0c-3.2-.73-5.2-1.95-6.41-3.88s-1.23-3.9-.2-6.36a17.77,17.77,0,0,1,5.46-6.81,36.41,36.41,0,0,1,9.17-5.47" transform="translate(-39.28 -395.79)" style="fill:#154889"/><path d="M229.93,454.65c-2.91.47-4.86-.62-4.34-2.41h5a1.26,1.26,0,0,0,.27,0c.36-.09.65-.34.65-.54l-.06-3.34.18,0c2.79-.43,4.72.58,4.32,2.31s-3.08,3.58-6,4Zm.19-6,0,2.77H226a8,8,0,0,1,4.13-2.77m-5.33,2.77h-1.2l6.5-5.3,0,1.81a10.16,10.16,0,0,0-5.32,3.49m-2.42,0-3.47-5.51h10.27ZM215,452.78c-2.34,1.69-5.79,2.45-7.66,1.68s-1.4-2.75,1-4.39a10.29,10.29,0,0,1,6.51-1.83l-3.67,3.05c-.27.22-.26.45,0,.52a1.31,1.31,0,0,0,1-.27l3.66-3.06c1.84.72,1.52,2.64-.77,4.3m22.23-2.63c.26-2.1-2.34-3.22-5.84-2.55l0-2.51.93-.76h1.29l.48-.75H229.2a.58.58,0,0,0-.38.15c-.1.1-.08.2.06.22l2.17.38-.93.76h-10.3l1.17-1a2.54,2.54,0,0,1,1.48-.53h1.87l.53-.74H223a4.92,4.92,0,0,0-2.94,1.05l-4.33,3.59a12.74,12.74,0,0,0-8.38,2.35c-2.91,2.07-3.4,4.53-1,5.45s6.77-.1,9.63-2.25,3.07-4.46.7-5.31l1.2-1,3.25,5.25a.78.78,0,0,0,.7.28h2.53a2.54,2.54,0,0,0-.13.45c-.44,2.22,2.21,3.45,5.9,2.72s6.83-3.11,7.1-5.26" transform="translate(-39.28 -395.79)" style="fill:#fff"/></g></g></g><g id="Overlay"><polygon id="Straße-2" data-name="Straße" points="241.29 7.93 441.86 7.93 585.93 134.21 180.63 134.21 241.29 7.93" style="fill:none;stroke:#000;stroke-linejoin:round"/></g></svg>